<?xml version="1.0" encoding="UTF-8" standalone="no"?>
<svg
   xmlns:dc="http://purl.org/dc/elements/1.1/"
   xmlns:cc="http://creativecommons.org/ns#"
   xmlns:rdf="http://www.w3.org/1999/02/22-rdf-syntax-ns#"
   xmlns:svg="http://www.w3.org/2000/svg"
   xmlns="http://www.w3.org/2000/svg"
   xmlns:sodipodi="http://sodipodi.sourceforge.net/DTD/sodipodi-0.dtd"
   xmlns:inkscape="http://www.inkscape.org/namespaces/inkscape"
   width="512"
   height="512"
   viewBox="0 0 60 60"
   version="1.1"
   id="svg26"
   sodipodi:docname="Turrellian_LED_logo.svg"
   inkscape:version="0.92.4 (5da689c313, 2019-01-14)">
  <metadata
     id="metadata30">
    <rdf:RDF>
      <cc:Work
         rdf:about="">
        <dc:format>image/svg+xml</dc:format>
        <dc:type
           rdf:resource="http://purl.org/dc/dcmitype/StillImage" />
        <dc:title>010 - Idea</dc:title>
      </cc:Work>
    </rdf:RDF>
  </metadata>
  <sodipodi:namedview
     pagecolor="#ffffff"
     bordercolor="#666666"
     borderopacity="1"
     objecttolerance="10"
     gridtolerance="10"
     guidetolerance="10"
     inkscape:pageopacity="0"
     inkscape:pageshadow="2"
     inkscape:window-width="1920"
     inkscape:window-height="986"
     id="namedview28"
     showgrid="false"
     showguides="false"
     inkscape:zoom="1"
     inkscape:cx="-195.09126"
     inkscape:cy="323.89573"
     inkscape:window-x="-11"
     inkscape:window-y="-11"
     inkscape:window-maximized="1"
     inkscape:current-layer="svg26" />
  <!-- Generator: Sketch 51.3 (57544) - http://www.bohemiancoding.com/sketch -->
  <title
     id="title2">010 - Idea</title>
  <desc
     id="desc4">Created with Sketch.</desc>
  <defs
     id="defs6" />
  <g
     id="g5256"
     transform="matrix(0.63418223,0,0,0.57998281,11.406359,8.0505768)">
    <g
       transform="translate(4.5703125,0.46875)"
       id="g5226">
      <path
         sodipodi:type="star"
         style="opacity:1;fill:#ffffff;fill-opacity:0.97647059;fill-rule:evenodd;stroke:#000000;stroke-width:1.171875;stroke-miterlimit:4;stroke-dasharray:none;stroke-opacity:1"
         id="path5210"
         sodipodi:sides="6"
         sodipodi:cx="25.373196"
         sodipodi:cy="26.76849"
         sodipodi:r1="17.385271"
         sodipodi:r2="15.056087"
         sodipodi:arg1="0.53001525"
         sodipodi:arg2="1.053614"
         inkscape:flatsided="true"
         inkscape:rounded="0"
         inkscape:randomized="0"
         d="M 40.373196,35.557553 25.261644,44.153403 10.261643,35.36434 10.373195,17.979427 25.484747,9.3835766 40.484748,18.17264 Z"
         transform="matrix(0.9389465,0,0,0.8260388,0.20146603,2.0199599)" />
      <g
         id="Page-1"
         transform="matrix(0.34430007,0,0,0.33901941,23.946736,13.009603)"
         style="fill:none;fill-rule:evenodd;stroke:none;stroke-width:1">
        <g
           id="010---Idea"
           transform="translate(-29.930977,0.72833021)"
           style="fill:#000000;fill-rule:nonzero">
          <path
             d="m 2.472,38.391 c 0.3288608,0.228836 0.6764244,0.429547 1.039,0.6 0.432,0.221 1.156,0.591 1.207,0.85 0.062913,0.341867 0.021808,0.694747 -0.118,1.013 -0.149,0.32 -0.305,0.595 -0.44,0.832 -0.366,0.647 -0.979,1.731 -0.055,2.486 0.216,0.2 0.589,0.489 0.929,0.75 -0.250295,0.437639 -0.3635102,0.940315 -0.325,1.443 0.052861,0.3957 0.267619,0.751699 0.593,0.983 0.222,0.157 0.459,0.293 0.693,0.426 0.591,0.337 0.822,0.494 0.9,0.807 0.05556,0.40248 0.021411,0.812267 -0.1,1.2 -0.059,0.267 -0.116,0.535 -0.15,0.8 -0.099302,0.911354 0.013293,1.833328 0.329,2.694 0.4497073,1.588504 1.8863334,2.695319 3.537,2.725 0.275593,-8.16e-4 0.550371,-0.02997 0.82,-0.087 2.856778,-0.677182 5.671844,-1.519598 8.431,-2.523 2.253,1.322 3.676,5.342 4.047,6.851 0.110772,0.446087 0.511365,0.759218 0.971,0.759 l 25.1,-0.07 c 0.318095,-6.17e-4 0.616922,-0.152533 0.804861,-0.409173 C 50.8728,60.264188 50.927429,59.933444 50.832,59.63 c -0.247242,-0.67755 -0.588225,-1.317104 -1.013,-1.9 -0.239792,-0.345682 -0.455951,-0.707172 -0.647,-1.082 -0.452613,-0.915913 -0.830185,-1.867032 -1.129,-2.844 -0.563319,-1.911505 -0.956188,-3.869157 -1.174,-5.85 -0.03278,-0.363529 -0.261023,-0.680319 -0.595477,-0.826497 -0.334454,-0.146177 -0.721985,-0.09852 -1.011053,0.124344 -0.289069,0.22286 -0.433751,0.585515 -0.37747,0.946153 0.231253,2.099515 0.64856,4.174337 1.247,6.2 0.329048,1.074929 0.744054,2.12164 1.241,3.13 0.228156,0.452868 0.487097,0.889559 0.775,1.307 l 0.067,0.1 L 25.536,59 c -0.66384,-2.372177 -1.868732,-4.558099 -3.52,-6.386 l 0.9,-0.315 c 0.67,-0.234 1.175,-0.41 1.434,-0.493 4.284,-1.355 6.426,-3.306 6.368,-5.8 8.19e-4,-0.266475 -0.107576,-0.52165 -0.29993,-0.706067 C 30.225717,45.115515 29.966204,45.017961 29.7,45.03 c -0.551955,0.0131 -0.988854,0.47104 -0.976,1.023 0.024,1.029 -0.819,2.53 -4.976,3.845 -0.271,0.087 -0.793,0.269 -1.486,0.511 -0.743,0.26 -1.688,0.59 -2.73,0.944 h -0.007 c -2.8142,1.031572 -5.685652,1.899686 -8.6,2.6 C 9.9924791,54.132721 9.0843088,53.544485 8.867,52.62 8.6533642,52.051106 8.5729723,51.440811 8.632,50.836 8.658,50.626 8.706,50.418 8.752,50.209 8.9557674,49.517307 8.9856513,48.786012 8.839,48.08 8.5471633,47.162736 7.8719205,46.417087 6.988,46.036 L 6.78,45.917 C 6.8879778,45.698996 7.0169191,45.49202 7.165,45.299 7.3327591,45.086436 7.4071421,44.814926 7.3711438,44.546541 7.3351455,44.278156 7.1918438,44.035843 6.974,43.875 c -0.24,-0.176 -0.806,-0.6 -1.22,-0.934 0.048,-0.087 0.1,-0.183 0.15,-0.27 C 6.061,42.396 6.24,42.076 6.415,41.706 6.7314463,41.005045 6.8246598,40.223727 6.682,39.468 6.442,38.248 5.274,37.65 4.421,37.214 4.1341602,37.078234 3.8591987,36.918676 3.599,36.737 3.384571,36.592925 3.1837381,36.429581 2.999,36.249 2.999,36.098 3.161,35.732 3.923,34.803 5.7138448,32.498386 7.2485475,30.00571 8.5,27.369 8.7361112,26.955761 8.8688783,26.491591 8.887,26.016 8.7837083,25.01084 8.2510439,24.099368 7.426,23.516 7.021,23.145 6.64,22.795 6.596,22.472 6.60268,22.235016 6.655679,22.00163 6.752,21.785 6.915,21.356 7.103,20.936 7.292,20.515 7.7020505,19.669499 8.0295679,18.786408 8.27,17.878 l 0.1,-0.426 C 8.5820691,16.452204 8.8552485,15.466354 9.188,14.5 9.9762974,12.324256 11.196799,10.330567 12.776,8.639 14.689,6.615 17.7,5.183 21.74,4.38 24.830262,3.7016014 27.96593,3.2497335 31.122,3.028 32.696046,2.942779 34.274688,3.03233 35.829,3.295 36.366279,3.375532 36.869569,3.0123678 36.962495,2.4770931 37.055421,1.9418184 36.703984,1.4302704 36.171,1.325 34.469592,1.0358498 32.741255,0.93724101 31.018,1.031 27.764083,1.2566886 24.531086,1.7205983 21.345,2.419 16.836,3.319 13.559,4.9 11.322,7.264 9.5574111,9.1521709 8.1930457,11.377811 7.311,13.807 6.9508689,14.852282 6.6549836,15.918605 6.425,17 l -0.1,0.422 C 6.1115707,18.206305 5.8253266,18.968953 5.47,19.7 c -0.2,0.456 -0.408,0.912 -0.587,1.384 -0.2302323,0.525746 -0.3214843,1.101839 -0.265,1.673 0.201795,0.895388 0.7193927,1.688115 1.458,2.233 0.489,0.449 0.81,0.765 0.814,1.04 -0.036199,0.152339 -0.093769,0.298791 -0.171,0.435 -1.1980003,2.523927 -2.6666137,4.910256 -4.38,7.117 -0.723,0.881 -1.48,1.908 -1.319,2.935 0.2118083,0.794752 0.7353275,1.470423 1.452,1.874 z"
             id="Shape"
             inkscape:connector-curvature="0" />
          <path
             d="m 12.167,18.793 0.1,-0.445 c 0.175275,-0.831383 0.397972,-1.652058 0.667,-2.458 0.602257,-1.669499 1.535594,-3.200117 2.744,-4.5 1.296018,-1.221998 2.882379,-2.0931372 4.609,-2.531 C 20.635613,8.760761 20.903857,8.4816978 20.988243,8.1294746 21.072629,7.7772514 20.959965,7.4069302 20.693716,7.1613819 20.427468,6.9158336 20.049258,6.8334443 19.705,6.946 c -2.060608,0.5355019 -3.948357,1.5932064 -5.481,3.071 -1.392606,1.497038 -2.468455,3.259961 -3.163,5.183 -0.300035,0.88765 -0.547464,1.79222 -0.741,2.709 l -0.1,0.433 c -0.124799,0.537601 0.209524,1.074666 0.747,1.2 0.0744,0.01746 0.15058,0.02619 0.227,0.026 0.465094,-6.32e-4 0.868354,-0.321831 0.973,-0.775 z"
             id="path9"
             inkscape:connector-curvature="0" />
          <circle
             id="Oval"
             cx="10"
             cy="22"
             r="1" />
          <path
             d="m 28,21.21 c -0.06849,3.409178 1.136268,6.721471 3.379,9.29 0.705924,0.733466 1.475616,1.402764 2.3,2 1.463,1.131 2.849,2.212 3.217,3.716 C 35.753513,36.668163 35.002244,37.771292 35,39 v 2 c 0.0053,1.266785 0.805649,2.393745 2,2.816 V 44 c 0,2.209139 1.790861,4 4,4 2.209139,0 4,-1.790861 4,-4 V 43.816 C 46.194351,43.393745 46.994749,42.266785 47,41 v -2 c -0.0029,-1.2297 -0.755941,-2.333112 -1.9,-2.784 0.367,-1.5 1.754,-2.585 3.217,-3.716 0.824178,-0.597496 1.593848,-1.266774 2.3,-2 C 52.860589,27.931714 54.066714,24.619594 54,21.21 53.972102,14.007378 48.201251,8.1433044 41,8 33.798749,8.1433044 28.027898,14.007378 28,21.21 Z M 38,23 h -1 c -0.552285,0 -1,-0.447715 -1,-1 0,-0.552285 0.447715,-1 1,-1 0.552285,0 1,0.447715 1,1 z m 4,13 H 40 V 25 h 2 z m -1,10 c -1.104569,0 -2,-0.895431 -2,-2 h 4 c 0,1.104569 -0.895431,2 -2,2 z m 4,-5 c 0,0.552285 -0.447715,1 -1,1 h -6 c -0.552285,0 -1,-0.447715 -1,-1 v -2 c 0,-0.552285 0.447715,-1 1,-1 h 6 c 0.552285,0 1,0.447715 1,1 z m 7,-19.759 c 0.06224,2.903619 -0.95833,5.726487 -2.863,7.919 -0.627242,0.643121 -1.308766,1.230965 -2.037,1.757 -1.179067,0.821395 -2.224647,1.819418 -3.1,2.959 V 25 h 1 c 1.656854,0 3,-1.343146 3,-3 0,-1.656854 -1.343146,-3 -3,-3 -1.656854,0 -3,1.343146 -3,3 v 1 h -2 v -1 c 0,-1.656854 -1.343146,-3 -3,-3 -1.656854,0 -3,1.343146 -3,3 0,1.656854 1.343146,3 3,3 h 1 v 8.876 C 37.1263,32.736964 36.082398,31.739272 34.905,30.918 34.176459,30.391592 33.494607,29.803418 32.867,29.16 30.960379,26.968374 29.93829,24.145241 30,21.241 30.1,15.147 35.132,10 41,10 c 5.868,0 10.905,5.147 11,11.241 z M 44,23 v -1 c 0,-0.552285 0.447715,-1 1,-1 0.552285,0 1,0.447715 1,1 0,0.552285 -0.447715,1 -1,1 z"
             id="path12"
             inkscape:connector-curvature="0" />
          <path
             d="m 57,22 h 3 c 0.552285,0 1,-0.447715 1,-1 0,-0.552285 -0.447715,-1 -1,-1 h -3 c -0.552285,0 -1,0.447715 -1,1 0,0.552285 0.447715,1 1,1 z"
             id="path14"
             inkscape:connector-curvature="0" />
          <path
             d="m 52.313,10.687 c 0.265541,2.09e-4 0.520262,-0.105205 0.708,-0.293 L 55.142,8.272 C 55.401957,8.0209255 55.506213,7.6491221 55.414697,7.2994927 55.323182,6.9498632 55.050137,6.6768183 54.700507,6.5853028 54.350878,6.4937874 53.979075,6.5980434 53.728,6.858 l -2.122,2.121 c -0.286624,0.2859 -0.372593,0.7164072 -0.217759,1.090464 0.154835,0.374056 0.519923,0.617855 0.924759,0.617536 z"
             id="path16"
             inkscape:connector-curvature="0" />
          <path
             d="m 41,6 c 0.552285,0 1,-0.4477153 1,-1 V 2 C 42,1.4477152 41.552285,1 41,1 40.447715,1 40,1.4477152 40,2 v 3 c 0,0.5522847 0.447715,1 1,1 z"
             id="path18"
             inkscape:connector-curvature="0" />
          <path
             d="m 30.394,10.394 c 0.187777,-0.187568 0.293287,-0.4420907 0.293287,-0.7075 0,-0.2654093 -0.10551,-0.5199317 -0.293287,-0.7075 L 28.272,6.858 C 28.020925,6.5980434 27.649122,6.4937874 27.299493,6.5853028 26.949863,6.6768183 26.676818,6.9498632 26.585303,7.2994927 26.493787,7.6491221 26.598043,8.0209255 26.858,8.272 l 2.121,2.122 c 0.187568,0.187777 0.442091,0.293287 0.7075,0.293287 0.265409,0 0.519932,-0.10551 0.7075,-0.293287 z"
             id="path20"
             inkscape:connector-curvature="0" />
          <path
             d="m 22,20 c -0.552285,0 -1,0.447715 -1,1 0,0.552285 0.447715,1 1,1 h 3 c 0.552285,0 1,-0.447715 1,-1 0,-0.552285 -0.447715,-1 -1,-1 z"
             id="path22"
             inkscape:connector-curvature="0" />
        </g>
      </g>
    </g>
    <flowRoot
       transform="matrix(0.1171875,0,0,0.1171875,-1.40625,-3.1640625)"
       style="font-style:normal;font-variant:normal;font-weight:normal;font-stretch:normal;font-size:40px;line-height:1.25;font-family:'Berlin Sans FB';-inkscape-font-specification:'Berlin Sans FB';letter-spacing:0px;word-spacing:0px;fill:#000000;fill-opacity:1;stroke:none"
       id="flowRoot5228"
       xml:space="preserve"><flowRegion
         style="font-style:normal;font-variant:normal;font-weight:normal;font-stretch:normal;font-family:'Berlin Sans FB';-inkscape-font-specification:'Berlin Sans FB'"
         id="flowRegion5230"><rect
           style="font-style:normal;font-variant:normal;font-weight:normal;font-stretch:normal;font-family:'Berlin Sans FB';-inkscape-font-specification:'Berlin Sans FB'"
           y="355"
           x="107"
           height="54"
           width="307"
           id="rect5232" /></flowRegion><flowPara
         style="font-style:normal;font-variant:normal;font-weight:normal;font-stretch:normal;font-size:26.66666603px;font-family:'Berlin Sans FB';-inkscape-font-specification:'Berlin Sans FB'"
         id="flowPara5234"><flowSpan
   id="flowSpan5236"
   style="font-style:normal;font-variant:normal;font-weight:normal;font-stretch:normal;font-family:'Berlin Sans FB';-inkscape-font-specification:'Berlin Sans FB';text-align:center;text-anchor:middle">TURRELLIAN </flowSpan>LED LAMP</flowPara></flowRoot>  </g>
</svg>
